<?xml version="1.0" encoding="utf-8"?>
<!-- Generator: Adobe Illustrator 22.1.0, SVG Export Plug-In . SVG Version: 6.00 Build 0)  -->
<svg version="1.1" xmlns="http://www.w3.org/2000/svg" xmlns:xlink="http://www.w3.org/1999/xlink" x="0px" y="0px"
	 viewBox="0 0 2272 1872" style="enable-background:new 0 0 2272 1872;" xml:space="preserve">
<style type="text/css">
	.st0{fill:#FFFFFF;}
	.st1{fill:#FEC83D;}
	.st2{fill:#AA7F21;}
	.st3{fill:#DCE7FD;}
	.st4{fill:#B3BECE;}
	.st5{fill:#AAB7CC;}
	.st6{fill:#182226;}
	.st7{fill:#273941;}
	.st8{fill:#DD411E;}
	.st9{fill:#8889C2;}
	.st10{opacity:0.56;fill:#DCE7FD;}
	.st11{opacity:0.56;fill:#8AB7FF;}
	.st12{fill:#9DACC6;}
</style>
<g id="Background">
	<g>
		<g>
			<rect x="0" class="st0" width="2272" height="1872"/>
		</g>
	</g>
</g>
<g id="object">
	<g>
		<g>
			<path class="st1" d="M281.1,1367.7c13.8-61.8,65.8-107.1,95.1-163.2c96.9-185.3-71.5-425.5,15.9-615.5
				c29.7-64.5,88.4-115,156.7-134.7c61.7-17.8,131.2-12.1,185.9-45.6c36.5-22.4,61.2-59.2,87.7-92.9c41.2-52.3,89.4-99,142.9-138.6
				c48.4-35.8,103.8-66.6,164-68.9c94.9-3.6,176.3,62.3,264.7,97.1c98.4,38.7,207.4,38.8,310.2,63.3
				c102.9,24.5,209.7,85.8,235.2,188.4c20,80.5-15.2,163.7-16.8,246.6c-2.9,143.6,92.9,268.2,136.9,405
				c20.8,64.7,30,133.1,27.1,200.9c-0.8,19.4-2.7,39-9.5,57.1c-11.2,30.1-34.9,53.7-59.2,74.6c-135.5,116.4-315.5,179.7-494,173.5
				c-94.5-3.3-188.5-25.1-282.8-17.2c-115.9,9.7-223.7,63.7-338.6,81.4c-114.5,17.6-196.2-78.1-312.8-57.4
				c-104.1,18.5-175,6.9-249.7-78.6C298.7,1495.7,266.7,1432.2,281.1,1367.7z"/>
			<path class="st2" d="M1779.5,1569.7c2.6-9.1-6.5-16.9-14.4-22.1c-81.1-53.9-151-124.6-203.9-206.3
				c181.8,10.5,364.8-97.9,442.9-262.4c-191.7-101.2-335.1-289.9-381.4-501.7c-8.2-37.6-16.4-80.3-48.8-101
				c-37.3-23.8-86-5.9-127.2,10.5c-137.3,54.6-283.8,86.1-431.4,92.9c-30.3,1.4-64.5,0.3-85.5-21.6c-11.5-12-17.7-29.1-31.8-38.1
				c-17.4-11.1-40.7-5.5-58.7,4.7c-17.9,10.2-33.6,24.5-53,31.8c-40.5,15.2-84.7-4.2-125.9-17.2s-94.6-16.1-119.5,19.3
				c-9.3,13.1-12.7,29.6-13.3,45.6c-2.6,75.5,53.4,140.7,115.3,183.9c62,43.1,133.4,73.1,188.9,124.4c8.4,7.7,16.7,16.5,19.3,27.6
				c7.2,30.8-29.5,51-52.5,72.8c-51.4,48.7-40,131.7-58,200.1c-24.4,92.8-122.1,163.2-125.5,260.6c-1.4,39.7,3.3,99,22.8,145.9
				c57,4.2,107,31.7,160,48.6c9.4-6.6,18.4-14,27.2-21.2c114.1-94.5,228.2-189.1,342.3-283.6c19.6-16.2,46.2-33.3,68.4-21
				c16.7,98.3,69.9,183.8,137.2,259.1c50.2,5,100.5,12,150.9,13.8c83.5,2.9,167.3-9.4,246.8-35.2
				C1774.6,1577.2,1778.3,1574.1,1779.5,1569.7z"/>
			<g>
				<path class="st3" d="M1807.5,1163.6c72-24.5,81.4-132.5,130.4-190.7c-39.8-39.8-10.6-4-42.3-50.5c-13.9-20.3-30.1-43.2-54.6-46
					c-8.9-1-17.9,0.9-26.7,2.9c-100.3,23.1-198.1,57.4-290.9,102c-62.1,29.9-124.1,66.2-163.6,122.7c-21.8,31.2-35,69.2-35.7,107.3
					c-0.5,25.6,3.7,79.3,36,83.4c19.3,2.5,49.6-12.6,68.2-17.7c24.5-6.7,48.9-13.5,73.4-20.4c48-13.5,96-27.3,143.8-41.7
					C1699.8,1199,1753.8,1181.9,1807.5,1163.6z"/>
				<path class="st3" d="M859.8,470.3c-4.2-8.9-7.3-18.8-14.7-25.4c-8.3-7.4-20.5-9-31.5-7.5c7.5,8.9,13.9,18.7,19,29.2
					c-21,1-33.8-30-54.6-27.5c-1.6,7.5,5.5,13.9,12,18c6.5,4.1,14.1,9.1,14.5,16.8c-10.3-5.6-20.6-11.2-31-16.8
					c-5.3,4.4-0.3,13.1,5.5,16.6c5.9,3.5,13.5,6.6,14.7,13.3c-7.9-1.7-15.9-3.3-23.8-5c-3.5-0.7-8.8,0.2-8.1,3.7
					c0.4,1.7,2.2,2.6,3.8,3.3c9.1,3.7,18.1,7.3,27.2,11c-2.1,4.5-8.5,4.2-13.5,4.5c-5,0.3-11.1,5.3-7.9,9.2c0.9,1.1,2.2,1.6,3.5,2
					c7.8,2.4,16.1,1.9,24.1,3.4c18.3,3.4,33,16.6,47.6,28.3c14.5,11.7,31.8,22.8,50.3,20.9c12.1-1.3,22.8-9.1,29.1-19.3
					c8.2-13.5,6.5-18.9-6.4-24.8C893.8,512.4,872.3,497,859.8,470.3z"/>
				<path class="st4" d="M1371.7,417.9c0,0-215.2,122.9-252.4,110.3c-37.2-12.7-187.1-64-187.1-64s-91.7,97.7-75.4,219.5
					c0,0,215.8,113.5,292.1,98.2c76.3-15.4,231.4-86.2,231.4-86.2S1420.8,443.3,1371.7,417.9z"/>
				<path class="st3" d="M1448.6,430.6l-76.9-12.7c0,0-124.2,206.4-152.3,306.6s-84.3,136.6-153.2,164.3S916.5,994.4,885.8,1087
					c0,0,291.4,225.4,477.3,228.7c0,0,132.7-484,230.2-575.5C1690.9,648.8,1658.3,356.5,1448.6,430.6z"/>
				<g>
					<path class="st3" d="M1696.5,1496.7c-11.8,20.3-22.2,40.1-30.8,58.6c15.6,10.6,38.1,24.2,57.6,35.7c21.9,12.9,39.9,23,39.9,23
						s-15.5,198.3,1.6,186.4c17.2-11.9,135.7-197.6,132.7-274.3l-107.8-47.8l-63.6-28.2C1716.2,1464.3,1706.2,1480,1696.5,1496.7z"
						/>
					<path class="st5" d="M1696.5,1496.7c-11.8,20.3-22.2,40.1-30.8,58.6c8.5,5.7,19,12.4,30,19.1c15.6-26.4,32.7-52,54.9-73
						c10.2-9.7,21.6-18.4,33.9-25.5l-58.3-25.9C1716.2,1464.3,1706.2,1480,1696.5,1496.7z"/>
					<path class="st6" d="M1747.7,1592.4c-0.8,3.9-1,7.9-1.4,11.9c10.2,5.8,16.8,9.6,16.8,9.6s-15.5,198.3,1.6,186.4
						c17.2-11.9,135.7-197.6,132.7-274.3l-84.5-37.5c-3.1,17.8-10.9,34.7-22.6,48.5C1775,1555,1752.3,1569.2,1747.7,1592.4z"/>
				</g>
				<path class="st7" d="M1340.1,808.8l-111.7,93.6c0,0-664.7,414.8-671.8,428.1c-7.1,13.2,50,299.9,217.5,328.3
					c0,0,406.7-393.9,503-500.1c0,0-10.2,187,67.3,267.1s259.4,191.8,259.4,191.8s163.4-91.5,214.6-213.8c0,0-267-115.7-267.4-156.7
					s68.8-369,75.9-385.2C1634,845.6,1340.1,808.8,1340.1,808.8z"/>
				<path class="st6" d="M1423,911.6l-26-37.6c0,0-272.7,280.8-271.8,277.2c0.9-3.6-355,298.1-355,298.1s42,95.3,23.1,190.7
					c81.9-79.5,400-389.1,483.6-481.4C1277,1158.6,1348.1,991.3,1423,911.6z"/>
				<g>
					<g>
						<path class="st7" d="M1371.5,176.4c5.8-26.3,31-47.3,57.9-46.8c3.7,0.1,7.5,0.6,10.3,3c1.9,1.6,3,4,4.1,6.2
							c2.2,4.5,4.3,9,6.5,13.5c0.7,1.4,1.4,2.8,2.6,3.8c1.6,1.2,3.7,1.4,5.7,1.6c24.9,1.9,49.4,9.1,71.4,21
							c11.1,6,21.8,13.3,29.4,23.3c9.1,12,13.2,27,16.5,41.7c2.6,11.6,4.9,23.7,2.5,35.3c-3.6,18.1-17.5,32-28,47
							c-8.2,11.7-14.6,24.5-21.3,37.1c-0.8,1.6-1.9,3.3-3.6,3.9c-1.7,0.5-3.4-0.2-5-0.9c-14.1-6.4-28.1-12.8-42.2-19.2
							c-6-2.7-12.1-5.5-16.8-10.1c-6.7-6.4-9.8-15.5-13.5-24c-6.4-14.8-14.8-28.6-24-41.8c-4.4-6.4-9-12.8-13.8-18.9
							c-4.1-5.2-7.5-6-12.8-9.4C1376.7,229.4,1366.4,199.7,1371.5,176.4z"/>
						<path class="st0" d="M1460.4,401.1c-3.7-0.5-64.3,13.9-64.3,13.9s17.2,58,16.2,58.2c-1,0.1-25.8,21-25.8,21l2.5,157.1
							L1460.4,401.1z"/>
						<path class="st3" d="M1399.6,236.2c0,0-50.5,114.5-22,121.8c28.5,7.3,82.8,2.8,82.8,2.8l-6.7,46.9c0,0-43.3,187.7-36.1,244.1
							c0,0,88.9-226,109.6-250.6l11.4-75.8c0,0,31.8-2.5,30.6-18.7c-1.2-16.2-20.9-22-36.7-13.9l-15.1,1.8l-4.1-16.3
							c0,0,21.4-26.6,17.1-39.5S1443.7,219,1399.6,236.2z"/>
						<path class="st8" d="M1453.6,407.8L1389,651.3c0,0-37,130.7-62.8,167.8c0,0,140.1,96.6,259.7,51.6l-28.2-476.1L1453.6,407.8z"
							/>
						<path class="st0" d="M1557.7,394.5l-121.4,265.7c0,0,48.2,329.5,93,400.1c44.8,70.6,105,142.4,113.9,212.2
							c0,0,278-62.1,331.8-303.8l-241.2-290.7C1733.8,677.9,1658.3,442.8,1557.7,394.5z"/>
						<path class="st3" d="M1783.1,805.3c5.3-17.4,9.5-35.3,12.1-53.5l-61.3-74c0,0-7.7-23.9-21.4-58c-6.3,3.9-12.3,8.5-17.5,13.3
							c-37,33.5-65.4,75.3-97.6,113.5c-36.9,43.8-79.2,83-125.4,116.8c16.8,82.3,37.4,165.3,57.4,196.8
							c6.5,10.2,13.3,20.5,20.3,30.8C1660.1,1030.6,1746.6,926.1,1783.1,805.3z"/>
						<path class="st9" d="M1505.1,336.2c-16,3.4-32,6.7-48,10.1c-27.1,5.7-54.7,11.4-82.2,10.6c0.8,0.5,1.7,0.9,2.7,1.2
							c22.9,5.9,62.5,4.1,77.2,3.2c0,0,0,0,0,0c0,0,0,0,0,0c3.1-0.2,5-0.3,5.5-0.4c0,0,0.1,0,0.1,0c0,0,0,0,0,0l-6.7,46.9
							c0,0-0.1,0.3-0.2,0.7c0,0,0,0,0,0.1c0,0.1-0.1,0.2-0.1,0.4c0,0.1,0,0.1,0,0.2l0,0c-0.5,2-1.4,6.3-2.8,12.3
							c7.4-1.3,14.7-2.9,21.9-4.7c4.8-1.2,9.6-2.6,13.5-5.6c5.8-4.4,8.7-11.6,10.9-18.6c3.8-11.8,6.7-23.9,8.5-36.2c0,0,0,0,0-0.1
							C1507,351.3,1508.1,340.5,1505.1,336.2z"/>
					</g>
					<path class="st9" d="M1560.8,296.3c-4-5.2-11.6-1.4-16.1,1c-5.7,3-9.7,7.5-11.2,13.9c-0.8,3.6,4.8,4.4,5.6,0.9
						c0.9-3.7,3.6-6.9,7.1-9.2c3.7,2.3,3.5,7.5,5.6,11.3c0.8,1.4,2.8,1,2.7-0.7c-0.1-3.4-0.4-6.8-2.3-9.7c-0.8-1.2-1.8-2-3-2.5
						c3.3-1.5,6.9-2.4,10-2.2C1560.5,299.1,1561.7,297.6,1560.8,296.3z"/>
					<path class="st3" d="M1528.1,394.8c-6.3,1.8-67.1,149.4-91.8,265.4l115.3-168.7l-28.2-7.8l62.9-86.6
						C1586.2,397.2,1564.9,384.1,1528.1,394.8z"/>
				</g>
				
					<rect x="365.7" y="95.7" transform="matrix(0.4884 -0.8726 0.8726 0.4884 -110.9138 496.163)" class="st3" width="3.9" height="493.8"/>
				<path class="st10" d="M605.2,388.9l-50.6-27.2c-10.3-5.5-23.2-1.7-28.7,8.6l-53.3,99.3c-5.5,10.3-1.7,23.2,8.6,28.7l50.6,27.2
					c10.3,5.5,23.2,1.7,28.7-8.6l53.3-99.3C619.4,407.3,615.5,394.5,605.2,388.9z"/>
				<path class="st10" d="M1524.3,856L658.5,361.9c-18.5-10.5-42-4.1-52.6,14.4l-86.7,151.9c-10.5,18.5-4.1,42,14.4,52.6
					l865.7,494.1c18.5,10.5,42,4.1,52.6-14.4l86.7-151.9C1549.2,890.1,1542.7,866.6,1524.3,856z"/>
				<path class="st11" d="M1444,833.7L718.5,419.7c-15.5-8.8-35.2-3.4-44,12L601.8,559c-8.8,15.5-3.4,35.2,12,44l725.5,414.1
					c15.5,8.8,35.2,3.4,44-12l72.7-127.3C1464.9,862.3,1459.5,842.6,1444,833.7z"/>
				<path class="st0" d="M1586.2,397.2c0,0-35.3-0.4-34.7,94.3c0,0-4.9,182.8-218.8,254.2c-12.8,4.3-21.4,16.3-21.1,29.8
					c1,57.3,13,204.8,107.8,271.6c9.5,6.7,21.9,7.6,32.2,2.2c59.9-31.2,269.3-152,287.5-326.1
					C1760.4,519.9,1586.2,397.2,1586.2,397.2z"/>
				
					<ellipse transform="matrix(0.9388 -0.3444 0.3444 0.9388 -227.1524 530.8783)" class="st5" cx="1380.9" cy="904.9" rx="32.6" ry="149.8"/>
				
					<ellipse transform="matrix(0.8705 -0.4921 0.4921 0.8705 -648.1378 521.8152)" class="st6" cx="667.7" cy="1492.8" rx="36.9" ry="169.4"/>
				<g>
					<path class="st3" d="M699.8,1474.6c-11.5-20.4-23.4-39.4-35.1-56.1c-17,8.1-40.1,20.8-59.8,31.8
						c-22.1,12.4-39.9,22.9-39.9,22.9s-163.5-113.3-161.9-92.4c1.6,20.8,102.4,216.7,170.2,252.7l95.6-69.1l56.4-40.7
						C717.9,1508,709.3,1491.5,699.8,1474.6z"/>
					<path class="st5" d="M699.8,1474.6c-11.5-20.4-23.4-39.4-35.1-56.1c-9.2,4.4-20.3,10.2-31.6,16.3c15,26.8,28.4,54.4,35.5,84.2
						c3.3,13.7,5,28,4.9,42.1l51.7-37.4C717.9,1508,709.3,1491.5,699.8,1474.6z"/>
					<path class="st6" d="M591.3,1470.7c-2.9-2.6-6.3-4.9-9.5-7.2c-10.2,5.8-16.8,9.7-16.8,9.7s-163.5-113.3-161.9-92.4
						c1.6,20.8,102.4,216.7,170.2,252.7l74.9-54.1c-13.8-11.6-24.5-26.9-30.5-44C609.9,1513.1,609,1486.4,591.3,1470.7z"/>
					<path class="st7" d="M573.3,1633.5l21.8-15.8c-36.5-106-192.1-237-192.1-237C404.7,1401.6,505.5,1597.4,573.3,1633.5z"/>
				</g>
				<path class="st8" d="M132.4,258.5c1.8,16.4,1.1,33.1-1.7,49.4c-1.9,11.1-4.6,23.4,1.3,33.1c2.1,3.5,5.6,6.5,9.6,6.8
					c5.5,0.5,10.5-4.1,12.3-9.3c1.9-5.2,1.3-11,0.8-16.5c-2.5-25.4-5.9-50.9-7.4-76.4C145.3,211.8,130.1,237.1,132.4,258.5z"/>
				<path class="st8" d="M161.5,330.4c0.6,5.5,0.4,11.1-0.6,16.6c-0.6,3.7-1.6,7.9,0.4,11.1c0.7,1.2,1.9,2.2,3.2,2.3
					c1.9,0.2,3.5-1.4,4.2-3.1c0.6-1.8,0.4-3.7,0.3-5.5c-0.8-8.5-2-17.1-2.5-25.7C165.8,314.7,160.7,323.2,161.5,330.4z"/>
				<path class="st3" d="M1380,821.8c-10.7,2.8-21.5,11.1-30.3,15.8c-6.7,3.6-13.5,7.1-20.3,10.4c-9.2,4.4-18.6,8.4-28.4,11.5
					c-9.7,3.1-19.7,5.3-28.6,10.1c-5.8,3.1-11,7.3-15.9,11.6c-16,14.1-29.7,30.6-43.4,47c-4.2,5-8.5,10.2-10.7,16.4
					c-2.2,6.2-1.9,13.7,2.5,18.6c4.5,5,12.1,6.3,16.3,11.6c3.8,4.8,4.4,12.3,9.8,15.1c3.6,1.9,8,0.8,12,1.9
					c10.1,2.7,14.1,17.9,24.6,18.2c2.4,0.1,5.2-0.7,7.1,0.8c1.2,0.9,1.7,2.5,2.4,3.8c3.1,5.5,11.2,6.4,16.8,3.5
					c5.6-2.9,9.2-8.6,12.1-14.2c9.4-18.3,14-39,25.2-56.3c6-9.2,13.5-17,21.9-24.1c9.2-7.8,19.4-14.6,29.4-21.3
					c8.6-5.8,17.2-11.5,25.8-17.3C1399.2,861.3,1389.6,839.9,1380,821.8z"/>
				<path class="st12" d="M1408.2,884.8c-9-23.5-18.6-44.9-28.2-63c-9.4,2.5-18.8,9.1-26.9,13.9c3.4,10,5.6,20.4,7.8,30.8
					c2.6,12.2,5.2,24.4,5.2,36.9c0,3.4-0.2,6.9-0.6,10.3c5.5-4,11.1-7.8,16.7-11.5C1391,896.3,1399.6,890.6,1408.2,884.8z"/>
			</g>
		</g>
		<polygon class="st8" points="320.6,551.6 268.8,557.6 262.8,505.8 228.9,509.7 235,561.5 183.1,567.6 187.1,601.4 238.9,595.4 
			244.9,647.2 278.8,643.2 272.7,591.4 324.6,585.4 		"/>
		<polygon class="st8" points="597.9,183.2 546,189.2 540,137.4 506.2,141.3 512.2,193.2 460.4,199.2 464.3,233 516.2,227 
			522.2,278.8 556,274.9 550,223.1 601.8,217 		"/>
		<polygon class="st3" points="362.6,810 310.8,816 304.7,764.2 270.9,768.1 276.9,819.9 225.1,826 229.1,859.8 280.9,853.8 
			286.9,905.6 320.8,901.7 314.7,849.8 366.5,843.8 		"/>
		<polygon class="st4" points="797.6,195 745.8,201 739.8,149.2 705.9,153.1 712,204.9 660.2,211 664.1,244.8 715.9,238.8 
			722,290.6 755.8,286.7 749.7,234.8 801.6,228.8 		"/>
	</g>
</g>
</svg>
